#!OML:ASF H:\MichaelJackson\Top Level 1\Subject 1\Session 1\male.ASF
:FULLY-SPECIFIED
:DEGREES
80
root 4.76528 16.7417 -25.6264 9.70696 -4.22141 -2.42766
lowerback -3.62646 0.787721 -0.824859
upperback -0.435377 1.0451 2.24549
thorax 1.5292 0.512017 2.82101
lowerneck -7.79261 -0.809546 -3.4317
upperneck -4.46258 -0.784032 2.19596
head -0.0602777 -0.33317 1.23383
rclavicle 7.70291e-015 1.86858e-014
rhumerus -38.2233 12.3998 -91.5619
rradius 39.5607
rwrist 12.1691
rhand -25.1929 -24.1131
rfingers 7.12502
rthumb 1.32522 -54.0887
lclavicle 7.70291e-015 1.86858e-014
lhumerus -40.475 4.37494 90.8608
lradius 41.0779
lwrist 9.64182
lhand -17.0971 4.71463
lfingers 7.12502
lthumb 9.14167 34.4965
rfemur -17.967 -4.36689 23.0897
rtibia 33.6369
rfoot -25.3922 -6.27721
rtoes 22.9064
lfemur -40.9802 16.5697 -19.6014
ltibia 54.0489
lfoot -11.9766 -2.80083
ltoes 12.3436
81
root 4.78258 16.7392 -25.5849 9.73078 -4.33594 -2.51544
lowerback -3.63822 0.831464 -0.804031
upperback -0.454538 1.1026 2.26158
thorax 1.51303 0.541181 2.82857
lowerneck -7.79632 -0.772334 -3.42314
upperneck -4.61972 -0.733744 2.19519
head -0.110076 -0.307429 1.23327
rclavicle -3.37934e-015 1.11319e-014
rhumerus -38.1187 12.7461 -91.6209
rradius 39.7737
rwrist 11.9604
rhand -25.1469 -24.1767
rfingers 7.12502
rthumb 1.36965 -54.152
lclavicle -3.37934e-015 1.11319e-014
lhumerus -40.6172 4.4208 90.772
lradius 40.9736
lwrist 9.53785
lhand -16.8889 4.78069
lfingers 7.12502
lthumb 9.34254 34.5537
rfemur -17.7506 -4.34006 23.0792
rtibia 33.481
rfoot -25.4303 -6.25085
rtoes 22.5393
lfemur -40.9649 16.24 -19.3461
ltibia 53.0786
lfoot -11.8304 -2.03456
ltoes 12.3029
82
root 4.80094 16.7364 -25.5418 9.73845 -4.45416 -2.61036
lowerback -3.65166 0.878644 -0.779568
upperback -0.463412 1.16431 2.28197
thorax 1.50813 0.572259 2.83889
lowerneck -7.79158 -0.736815 -3.41659
upperneck -4.78855 -0.685767 2.19258
head -0.164815 -0.282818 1.23244
rclavicle -6.4605e-016 -1.74931e-014
rhumerus -38.0004 13.0967 -91.6749
rradius 39.9826
rwrist 11.7511
rhand -25.1477 -24.2226
rfingers 7.12502
rthumb 1.36889 -54.198
lclavicle -6.4605e-016 -1.74931e-014
lhumerus -40.7515 4.46231 90.6928
lradius 40.8456
lwrist 9.39486
lhand -16.6813 4.82762
lfingers 7.12502
lthumb 9.54281 34.5915
rfemur -17.5068 -4.30892 23.0688
rtibia 33.3219
rfoot -25.4654 -6.22608
rtoes 22.1693
lfemur -40.8987 15.8865 -19.061
ltibia 52.1202
lfoot -11.762 -1.16767
ltoes 12.2405
83
root 4.82029 16.7337 -25.4971 9.73269 -4.57521 -2.70948
lowerback -3.67203 0.927931 -0.75541
upperback -0.461107 1.22858 2.3057
thorax 1.51837 0.604365 2.85326
lowerneck -7.78228 -0.704396 -3.40805
upperneck -4.962 -0.642246 2.18649
head -0.221617 -0.260485 1.23008
rclavicle -6.80837e-015 -5.1684e-015
rhumerus -37.8647 13.4513 -91.7238
rradius 40.1867
rwrist 11.5487
rhand -25.1774 -24.2472
rfingers 7.12502
rthumb 1.34023 -54.2227
lclavicle -6.80837e-015 -5.1684e-015
lhumerus -40.8723 4.50902 90.6199
lradius 40.6957
lwrist 9.22844
lhand -16.4587 4.82406
lfingers 7.12502
lthumb 9.75765 34.578
rfemur -17.2402 -4.27447 23.0566
rtibia 33.1584
rfoot -25.4905 -6.20033
rtoes 21.8296
lfemur -40.7895 15.5172 -18.7531
ltibia 51.1799
lfoot -11.752 -0.226513
ltoes 12.2554
